# xmcd CD database file
#
# Track frame offsets:
#	150
#	53407
#	105794
#	172324
#
# Disc length: 3080 seconds
#
# Revision: 0
# Processed by: cddbd v1.5.1PL0 Copyright (c) Steve Scherf et al.
# Submitted via: CDex 1.51
#
DISCID=260c0604
DTITLE=Chick Corea - To The Stars Tour Edition Disc2
DYEAR=2005
DGENRE=Jazz
TTITLE0=CTA
TTITLE1=Got A Match?
TTITLE2=Eternal Child
TTITLE3=Blue Miles
EXTD=YEAR: 2005
EXTT0=
EXTT1=
EXTT2=
EXTT3=
PLAYORDER=
